<svg id="Layer_1" enable-background="new 0 0 96 96" viewBox="0 0 96 96" xmlns="http://www.w3.org/2000/svg"><path d="m87.736 3h-79.472c-2.903 0-5.264 2.361-5.264 5.264v79.473c0 2.902 2.361 5.263 5.264 5.263h79.473c2.902 0 5.263-2.361 5.263-5.264v-79.472c0-2.903-2.361-5.264-5.264-5.264zm-79.472 1.957h79.473c1.824 0 3.307 1.484 3.307 3.307v8.266h-86.087v-8.266c0-1.824 1.483-3.307 3.307-3.307zm79.472 86.086h-79.472c-1.824 0-3.307-1.484-3.307-3.307v-69.25h86.087v69.25c-.001 1.824-1.484 3.307-3.308 3.307zm-10.392-75.559h5.69c1.046 0 1.896-.85 1.896-1.896v-5.69c0-1.045-.851-1.896-1.896-1.896h-5.69c-1.046 0-1.896.851-1.896 1.896v5.69c0 1.046.851 1.896 1.896 1.896zm.061-7.525h5.569v5.569h-5.569zm-66.335 2.784c0-.54.438-.978.978-.978h5.698c.54 0 .978.438.978.978s-.438.978-.978.978h-5.698c-.54 0-.978-.437-.978-.978zm10.599 0c0-.54.438-.978.978-.978h5.698c.54 0 .978.438.978.978s-.438.978-.978.978h-5.698c-.54 0-.978-.437-.978-.978zm10.599 0c0-.54.438-.978.978-.978h5.698c.54 0 .978.438.978.978s-.438.978-.978.978h-5.698c-.54 0-.978-.437-.978-.978zm50.206 40.033c-1.861 0-3.424 1.283-3.862 3.01h-11.782c-.293-1.648-1.314-3.047-2.717-3.853.003-.075.005-.15.005-.225 0-.547-.093-1.078-.26-1.579h8.077c.349 0 .672-.186.847-.489l4.753-8.233c.345.098.708.154 1.084.154 2.199 0 3.988-1.789 3.988-3.989 0-2.199-1.789-3.989-3.988-3.989s-3.989 1.789-3.989 3.989c0 1.119.465 2.131 1.21 2.856l-4.471 7.744h-8.704c-.434-.446-.951-.812-1.527-1.076.058-.309.092-.626.092-.949 0-2.794-2.273-5.067-5.067-5.067-.589 0-1.163.103-1.705.297-.206-.593-.519-1.136-.917-1.607v-7.187h6.535c.438 1.727 2.001 3.01 3.862 3.01 2.199 0 3.989-1.789 3.989-3.989s-1.789-3.989-3.989-3.989c-1.861 0-3.424 1.283-3.862 3.01h-7.513c-.54 0-.978.438-.978.978v6.741c-.591-.242-1.236-.376-1.913-.376-.234 0-.466.017-.695.049v-7.507c1.727-.438 3.01-2.001 3.01-3.862 0-2.199-1.789-3.988-3.989-3.988s-3.989 1.789-3.989 3.988c0 1.861 1.283 3.424 3.01 3.862v7.507c-.229-.031-.46-.049-.695-.049-.677 0-1.322.134-1.913.376v-6.741c0-.54-.438-.978-.978-.978h-7.513c-.438-1.727-2.001-3.01-3.862-3.01-2.199 0-3.989 1.789-3.989 3.989s1.789 3.989 3.989 3.989c1.861 0 3.424-1.283 3.862-3.01h6.535v7.187c-.398.47-.711 1.014-.917 1.607-.542-.194-1.116-.297-1.705-.297-2.794 0-5.067 2.273-5.067 5.067 0 .324.034.641.092.949-.576.263-1.093.63-1.527 1.076h-8.704l-4.471-7.744c.745-.725 1.21-1.737 1.21-2.856 0-2.199-1.789-3.989-3.989-3.989s-3.989 1.789-3.989 3.989c0 2.199 1.789 3.989 3.989 3.989.376 0 .739-.056 1.084-.154l4.753 8.233c.175.303.498.489.847.489h8.077c-.167.501-.26 1.032-.26 1.579 0 .075.002.15.005.225-1.403.806-2.424 2.205-2.717 3.853h-11.778c-.438-1.727-2.001-3.01-3.862-3.01-2.199 0-3.989 1.789-3.989 3.989s1.789 3.988 3.989 3.988c1.861 0 3.424-1.283 3.862-3.01h11.782c.293 1.648 1.314 3.047 2.717 3.853-.003.075-.005.15-.005.225 0 .547.093 1.078.26 1.579h-8.077c-.349 0-.672.186-.847.489l-4.753 8.233c-.345-.098-.708-.154-1.084-.154-2.199 0-3.989 1.789-3.989 3.988s1.789 3.989 3.989 3.989c2.199 0 3.988-1.789 3.988-3.989 0-1.119-.465-2.131-1.21-2.856l4.471-7.744h8.704c.434.446.951.812 1.527 1.076-.058.309-.092.626-.092.949 0 2.794 2.273 5.067 5.067 5.067.589 0 1.163-.103 1.705-.297.206.593.519 1.136.917 1.607v7.187h-6.535c-.438-1.727-2.001-3.01-3.862-3.01-2.199 0-3.989 1.789-3.989 3.989 0 2.199 1.789 3.989 3.989 3.989 1.861 0 3.424-1.283 3.862-3.01h7.513c.54 0 .978-.438.978-.978v-6.741c.591.242 1.236.376 1.913.376.234 0 .466-.017.695-.049v7.507c-1.727.438-3.01 2.001-3.01 3.862 0 2.199 1.789 3.989 3.989 3.989s3.989-1.789 3.989-3.989c0-1.861-1.283-3.424-3.01-3.862v-7.508c.229.031.46.049.695.049.677 0 1.322-.134 1.913-.376v6.741c0 .54.438.978.978.978h7.513c.438 1.727 2.001 3.01 3.862 3.01 2.199 0 3.989-1.789 3.989-3.989 0-2.199-1.789-3.989-3.989-3.989-1.861 0-3.424 1.283-3.862 3.01h-6.535v-7.187c.398-.47.711-1.014.917-1.607.542.194 1.116.297 1.705.297 2.794 0 5.067-2.273 5.067-5.067 0-.324-.034-.64-.092-.949.576-.263 1.093-.629 1.527-1.076h8.704l4.471 7.744c-.745.725-1.21 1.736-1.21 2.856 0 2.199 1.789 3.989 3.988 3.989s3.989-1.789 3.989-3.989c0-2.199-1.789-3.988-3.989-3.988-.376 0-.739.056-1.084.154l-4.753-8.233c-.175-.303-.498-.489-.847-.489h-8.077c.167-.501.26-1.032.26-1.579 0-.075-.002-.15-.005-.225 1.403-.806 2.423-2.205 2.717-3.853h11.782c.438 1.727 2.001 3.01 3.862 3.01 2.199 0 3.989-1.789 3.989-3.988s-1.792-3.988-3.991-3.988zm-3.854-17.235c1.12 0 2.032.912 2.032 2.032s-.911 2.032-2.032 2.032-2.032-.912-2.032-2.032.912-2.032 2.032-2.032zm-14.681-5.967c1.12 0 2.032.912 2.032 2.032s-.912 2.032-2.032 2.032-2.032-.912-2.032-2.032.912-2.032 2.032-2.032zm-31.878 4.064c-1.12 0-2.032-.912-2.032-2.032s.912-2.032 2.032-2.032 2.032.912 2.032 2.032-.912 2.032-2.032 2.032zm-16.713 3.935c0-1.12.912-2.032 2.032-2.032s2.032.912 2.032 2.032-.912 2.032-2.032 2.032-2.032-.911-2.032-2.032zm-1.822 21.224c-1.12 0-2.032-.911-2.032-2.032s.912-2.032 2.032-2.032 2.032.912 2.032 2.032-.912 2.032-2.032 2.032zm3.854 19.191c-1.12 0-2.032-.912-2.032-2.032s.912-2.032 2.032-2.032 2.032.911 2.032 2.032-.912 2.032-2.032 2.032zm14.681 5.968c-1.12 0-2.032-.912-2.032-2.032s.912-2.032 2.032-2.032 2.032.912 2.032 2.032-.912 2.032-2.032 2.032zm31.878-4.064c1.12 0 2.032.912 2.032 2.032s-.912 2.032-2.032 2.032-2.032-.912-2.032-2.032.912-2.032 2.032-2.032zm16.713-3.936c0 1.12-.912 2.032-2.032 2.032s-2.032-.912-2.032-2.032.911-2.032 2.032-2.032 2.032.912 2.032 2.032zm-34.684-49.306c0-1.12.912-2.032 2.032-2.032s2.032.911 2.032 2.032c0 1.12-.912 2.032-2.032 2.032s-2.032-.911-2.032-2.032zm-2.752 43.842c0-.99.478-1.93 1.28-2.515.437-.319.532-.93.214-1.367s-.93-.532-1.367-.214c-1.209.882-1.965 2.262-2.07 3.744-.441.231-.931.352-1.438.352-1.715 0-3.111-1.395-3.111-3.111 0-.418.083-.819.234-1.187.003-.007.005-.015.008-.022.344-.822 1.035-1.474 1.926-1.757.515-.164.8-.714.636-1.229s-.714-.8-1.229-.636c-1.149.365-2.091 1.108-2.713 2.064-.91-.447-1.56-1.325-1.713-2.337.254.036.513.055.776.055.398 0 .796-.042 1.182-.126.528-.114.864-.635.749-1.163-.114-.528-.635-.864-1.163-.749-.251.054-.509.082-.768.082-1.992 0-3.612-1.62-3.612-3.612s1.62-3.612 3.612-3.612c.26 0 .518.028.768.082.528.114 1.049-.221 1.163-.749s-.221-1.049-.749-1.163c-.386-.083-.784-.126-1.182-.126-.263 0-.522.02-.776.055.153-1.012.803-1.89 1.713-2.337.622.957 1.564 1.699 2.713 2.064.098.031.198.046.296.046.415 0 .8-.266.932-.682.163-.515-.121-1.065-.636-1.228-1.297-.412-2.168-1.603-2.168-2.966 0-1.715 1.395-3.111 3.111-3.111.508 0 .997.121 1.438.352.104 1.481.861 2.861 2.07 3.743.174.127.376.188.576.188.302 0 .6-.139.791-.402.319-.437.223-1.049-.214-1.367-.801-.585-1.28-1.525-1.28-2.515 0-1.715 1.395-3.111 3.111-3.111.237 0 .469.028.695.08v33.516c-.226.052-.458.08-.695.08-1.714.001-3.11-1.394-3.11-3.109zm6.816 16.387c0 1.12-.912 2.032-2.032 2.032s-2.032-.911-2.032-2.032.912-2.032 2.032-2.032 2.032.912 2.032 2.032zm11.317-26.502c-.259 0-.518-.028-.769-.082-.527-.114-1.049.221-1.163.749s.221 1.049.749 1.163c.387.084.784.126 1.182.126.263 0 .522-.02.776-.055-.153 1.012-.803 1.89-1.713 2.337-.622-.957-1.564-1.699-2.713-2.064-.515-.164-1.065.122-1.229.636-.164.515.121 1.065.636 1.229.891.283 1.581.934 1.926 1.756.003.008.005.015.009.023.151.368.233.769.233 1.186 0 1.715-1.395 3.111-3.111 3.111-.508 0-.997-.121-1.438-.352-.104-1.481-.861-2.861-2.07-3.744-.436-.318-1.048-.223-1.367.214-.318.436-.223 1.048.214 1.367.801.584 1.28 1.525 1.28 2.515 0 1.715-1.395 3.111-3.111 3.111-.237 0-.469-.028-.695-.08v-33.516c.226-.052.458-.08.695-.08 1.715 0 3.111 1.395 3.111 3.111 0 .99-.478 1.931-1.28 2.515-.436.318-.532.93-.214 1.367.192.263.489.402.791.402.2 0 .402-.061.576-.188 1.209-.882 1.965-2.262 2.07-3.743.441-.231.93-.352 1.438-.352 1.715 0 3.111 1.395 3.111 3.111 0 1.362-.871 2.554-2.168 2.966-.515.164-.8.713-.636 1.228.132.417.517.682.932.682.098 0 .198-.015.296-.046 1.149-.365 2.091-1.107 2.713-2.064.91.447 1.56 1.325 1.713 2.337-.254-.036-.513-.055-.776-.055-.398 0-.796.042-1.182.126-.528.114-.864.635-.749 1.163.114.528.635.863 1.163.749.25-.054.509-.082.769-.082 1.992 0 3.612 1.62 3.612 3.612.001 1.991-1.619 3.611-3.611 3.611zm21.125-1.58c-1.12 0-2.032-.911-2.032-2.032s.912-2.032 2.032-2.032 2.032.912 2.032 2.032-.911 2.032-2.032 2.032z"/></svg>