<svg enable-background="new 0 0 64 64" viewBox="0 0 64 64" xmlns="http://www.w3.org/2000/svg"><g id="Layer_1"/><g id="Keyword" display="none"/><g id="Drone"/><g id="Game_Console"/><g id="Ebook"/><g id="Cloud_Computing"/><g id="Flashdisk"/><g id="Smartlock"/><g id="Electric_Car"/><g id="Smartlamp"/><g id="Eye_Scanner"/><g id="Blockchain"><g><path d="m48 33c0-3.116-.149-6.267-.442-9.366-.31-3.276-2.894-5.879-6.144-6.188-6.226-.591-12.571-.592-18.78-.004-3.276.31-5.879 2.894-6.188 6.144-.296 3.119-.446 6.286-.446 9.414 0 3.116.149 6.267.442 9.366.31 3.276 2.894 5.879 6.144 6.188 3.119.296 6.286.446 9.414.446 3.116 0 6.267-.149 9.366-.442 3.276-.31 5.879-2.894 6.188-6.144.296-3.119.446-6.286.446-9.414zm-2.438 9.225c-.218 2.297-2.062 4.123-4.385 4.342-6.083.577-12.302.576-18.402-.004-2.297-.218-4.123-2.062-4.342-4.385-.287-3.037-.433-6.125-.433-9.178 0-3.065.147-6.169.438-9.225.218-2.297 2.062-4.123 4.385-4.342 3.036-.287 6.124-.433 9.177-.433 3.065 0 6.169.147 9.225.438 2.297.218 4.123 2.062 4.342 4.385.287 3.036.433 6.124.433 9.177 0 3.065-.147 6.169-.438 9.225z"/><path d="m27.707 27.293c-.391-.391-1.023-.391-1.414 0l-5 5c-.391.391-.391 1.023 0 1.414l5 5c.195.195.451.293.707.293s.512-.098.707-.293c.391-.391.391-1.023 0-1.414l-4.293-4.293 4.293-4.293c.391-.391.391-1.023 0-1.414z"/><path d="m37.707 27.293c-.391-.391-1.023-.391-1.414 0s-.391 1.023 0 1.414l4.293 4.293-4.293 4.293c-.391.391-.391 1.023 0 1.414.195.195.451.293.707.293s.512-.098.707-.293l5-5c.391-.391.391-1.023 0-1.414z"/><path d="m33.124 24.008c-.546-.071-1.048.32-1.116.868l-2 16c-.068.548.32 1.048.868 1.116.042.006.084.008.125.008.497 0 .928-.37.991-.876l2-16c.069-.548-.32-1.048-.868-1.116z"/><path d="m63.53 15.848c.292-.183.47-.503.47-.848v-9c0-.345-.178-.665-.47-.848l-8-5c-.324-.202-.735-.202-1.06 0l-8 5c-.292.183-.47.503-.47.848v4h-28v-4c0-.345-.178-.665-.47-.848l-8-5c-.324-.202-.735-.202-1.06 0l-8 5c-.292.183-.47.503-.47.848v9c0 .345.178.665.47.848l7.53 4.706v22.891l-7.53 4.706c-.292.184-.47.504-.47.849v9c0 .345.178.665.47.848l8 5c.162.101.346.152.53.152s.368-.051.53-.152l8-5c.292-.183.47-.503.47-.848v-2h28v2c0 .345.178.665.47.848l8 5c.162.101.346.152.53.152s.368-.051.53-.152l8-5c.292-.183.47-.503.47-.848v-9c0-.345-.178-.665-.47-.848l-7.53-4.706v-22.892zm-7.53 2.348v-6.642l6-3.75v6.642zm-1-16.017 6.113 3.821-6.113 3.821-6.113-3.821zm-7 5.625 6 3.75v6.642l-6-3.75v-2.446h1c.552 0 1-.448 1-1s-.448-1-1-1h-1zm-33 4.196h1v2.446l-6 3.75v-6.642l6-3.75v2.196h-1c-.552 0-1 .448-1 1s.448 1 1 1zm-6-9.821 6.113 3.821-6.113 3.821-6.113-3.821zm-7 5.625 6 3.75v6.642l-6-3.75zm7 40.196c.552 0 1-.448 1-1v-1.196l5.113 3.196-6.113 3.821-6.113-3.821 5.113-3.196v1.196c0 .552.448 1 1 1zm-7 2.804 6 3.75v6.642l-6-3.75zm14 6.642-6 3.75v-6.642l6-3.75v3.196h-1c-.552 0-1 .448-1 1s.448 1 1 1h1zm2-3.446v-5c0-.345-.178-.665-.47-.848l-7.53-4.706v-22.892l7.53-4.706c.292-.183.47-.503.47-.848v-3h28v3c0 .345.178.665.47.848l7.53 4.706v22.891l-7.53 4.706c-.292.184-.47.504-.47.849v5zm30 2h1c.552 0 1-.448 1-1s-.448-1-1-1h-1v-3.196l6 3.75v6.642l-6-3.75zm8 5.196v-6.642l6-3.75v6.642zm5.113-12.196-6.113 3.821-6.113-3.821 5.113-3.196v1.196c0 .552.448 1 1 1s1-.448 1-1v-1.196z"/></g></g><g id="Smartfarm"/><g id="Hologram"/><g id="Robot_Arm"/><g id="Arficial_Inteligence"/><g id="Digitalization"/><g id="Digital_Transformation"/><g id="Humanoid"/><g id="Processor"/><g id="Virtual_Reality"/><g id="Fingerprint"/></svg>