<?xml version="1.0"?>
<svg xmlns="http://www.w3.org/2000/svg" id="line" viewBox="0 0 64 64"><path d="M56.70405,26.588a.91248.91248,0,0,1-.99558-.67675,24.20509,24.20509,0,0,0-2.63764-6.36949.91643.91643,0,0,1,.1723-1.1489,2.94164,2.94164,0,0,0,.33355-4.41934l-3.55022-3.55015a2.94419,2.94419,0,0,0-4.41885.33245.91516.91516,0,0,1-1.146.17577,24.20105,24.20105,0,0,0-6.38219-2.642.91175.91175,0,0,1-.67973-.8784,2.952,2.952,0,0,0-2.89-3.41057H29.49028A2.92641,2.92641,0,0,0,26.588,7.29594a.91375.91375,0,0,1-.67674.99559,24.20493,24.20493,0,0,0-6.36949,2.63763.90457.90457,0,0,1-1.19285-.23382,2.94692,2.94692,0,0,0-4.37539-.272l-3.55016,3.55021a2.94488,2.94488,0,0,0,.27191,4.3754.90529.90529,0,0,1,.23632,1.18942,24.20119,24.20119,0,0,0-2.642,6.38219.88185.88185,0,0,1-.98966.668,2.94359,2.94359,0,0,0-3.29931,2.9018v5.01942a2.92851,2.92851,0,0,0,2.91986,2.93017c.54857-.09619,1.235.00849,1.37106.64885a24.20535,24.20535,0,0,0,2.63764,6.3695.91632.91632,0,0,1-.1723,1.14884,3.00127,3.00127,0,0,0,.0365,4.78944,1.00008,1.00008,0,0,0,1.41409-1.414l-.3701-.37011a.92085.92085,0,0,1,.10253-1.38766,2.93758,2.93758,0,0,0,.70946-3.78654,22.194,22.194,0,0,1-2.41841-5.83874A2.89281,2.89281,0,0,0,7.0435,35.42815a.94422.94422,0,0,1-1.04294-.91844V29.49029a.92642.92642,0,0,1,1.05954-.916,2.90741,2.90741,0,0,0,3.16888-2.165,22.19331,22.19331,0,0,1,2.4228-5.851,2.93122,2.93122,0,0,0-.78123-3.83244.93044.93044,0,0,1-.0332-1.33835l3.55021-3.55021a.933.933,0,0,1,1.33738.03222,2.93325,2.93325,0,0,0,3.83683.77977,22.19347,22.19347,0,0,1,5.83874-2.4184,2.91845,2.91845,0,0,0,2.15962-3.31048.93741.93741,0,0,1,.93015-.9199h5.01937c.75938-.01306,1.03489.76732.89018,1.41012A2.89341,2.89341,0,0,0,37.5907,10.229a22.1931,22.1931,0,0,1,5.85094,2.4228,2.92952,2.92952,0,0,0,3.83244-.78123.93269.93269,0,0,1,1.33835-.0332l3.55022,3.55021a.92088.92088,0,0,1-.10254,1.38767,2.93759,2.93759,0,0,0-.70946,3.78654,22.19364,22.19364,0,0,1,2.41841,5.83874,2.89839,2.89839,0,0,0,3.18743,2.17134.94581.94581,0,0,1,1.04295.91844v5.01942a.9278.9278,0,0,1-1.05955.916,2.91049,2.91049,0,0,0-3.16888,2.165,22.193,22.193,0,0,1-2.4228,5.851,2.9372,2.9372,0,0,0,.7119,3.78312.92061.92061,0,0,1,.10254,1.38766l-3.55022,3.55022a.92108.92108,0,0,1-1.38766-.10254,2.93669,2.93669,0,0,0-3.78654-.70946,22.19356,22.19356,0,0,1-5.83875,2.41841,2.91842,2.91842,0,0,0-2.15962,3.31048.93741.93741,0,0,1-.93015.9199H29.49028a.9152.9152,0,0,1-.6967-.31591c-.29-.28869-.22076-.71679-.19341-1.09422A2.89344,2.89344,0,0,0,26.4093,53.771a22.19283,22.19283,0,0,1-5.851-2.4228,2.93786,2.93786,0,0,0-3.78312.7119.92108.92108,0,0,1-1.38767.10254c-.46245-.56267-1.1442-.95665-1.77431-.36041-.59282.62511-.20544,1.30985.36028,1.77438a2.94229,2.94229,0,0,0,4.41885-.33245.91741.91741,0,0,1,1.146-.17578,24.20072,24.20072,0,0,0,6.38219,2.642.91175.91175,0,0,1,.67973.87834,2.952,2.952,0,0,0,2.89,3.41063h5.01943A2.92643,2.92643,0,0,0,37.412,56.70405a.91375.91375,0,0,1,.67674-.99558,24.205,24.205,0,0,0,6.36949-2.63764.90419.90419,0,0,1,1.19285.23382,2.94567,2.94567,0,0,0,4.37539.272l3.55022-3.55022a2.926,2.926,0,0,0-.272-4.37539.90526.90526,0,0,1-.23632-1.18943,24.20065,24.20065,0,0,0,2.642-6.38218.892.892,0,0,1,.98967-.668,2.94388,2.94388,0,0,0,3.2993-2.90173V29.49029A2.9264,2.9264,0,0,0,56.70405,26.588Z"/><path d="M17.00044,31.99988A14.99962,14.99962,0,1,0,46.99967,32a14.89883,14.89883,0,0,0-2.98919-8.98858A.99979.99979,0,0,0,42.409,24.20866a12.91726,12.91726,0,0,1,2.59077,7.79122C44.26688,49.26159,19.70821,49.24279,19.00028,32a13.00256,13.00256,0,0,1,20.791-10.409.99989.99989,0,0,0,1.19742-1.60122C31.35908,12.56707,16.84267,19.833,17.00044,31.99988Z"/><path d="M25.21059,28.84235V31.855l-2.37836-3.56724a1.00569,1.00569,0,0,0-1.832.55461v6.31529a1,1,0,0,0,2,0V32.145l2.37837,3.56731a1,1,0,0,0,1.832-.55468V28.84241A1.00017,1.00017,0,0,0,25.21059,28.84235Z"/><path d="M37.78942,27.84237a1,1,0,0,0-1,1v6.31529a1,1,0,0,0,2,0V33.21042h1.52633a2.684,2.684,0,1,0,0-5.368Zm3.21038,2.684a.68453.68453,0,0,1-.68407.68406H38.7894V29.84233h1.52633A.68453.68453,0,0,1,40.9998,30.5264Z"/><path d="M29.89457,27.84237a1,1,0,0,0-1,1v6.31529a1,1,0,0,0,1,1h4.21085a1,1,0,1,0,0-1.99995H30.89455V28.84235A1,1,0,0,0,29.89457,27.84237Z"/></svg>
