<svg id="Layer_1" enable-background="new 0 0 512 512" viewBox="0 0 512 512" xmlns="http://www.w3.org/2000/svg"><path clip-rule="evenodd" d="m142.679 225.618h1.4v50.484h-1.4c-5.5 0-10-4.5-10-10v-30.485c0-5.5 4.5-9.999 10-9.999zm38.411 162.463c-1.891-7.948-5.042-15.541-9.326-22.497l6.489-14.61-17.226-17.225-14.615 6.491c-6.955-4.283-14.545-7.433-22.491-9.324l-5.741-14.916h-24.36l-5.741 14.915c-7.946 1.891-15.536 5.041-22.491 9.324l-14.615-6.491-17.225 17.226 6.49 14.614c-4.283 6.955-7.434 14.546-9.325 22.493l-14.913 5.739v24.36l14.911 5.739c1.892 7.948 5.042 15.541 9.326 22.498l-6.489 14.61 17.225 17.225 14.615-6.491c6.955 4.283 14.545 7.433 22.491 9.324l5.742 14.915h24.36l5.739-14.911c7.948-1.891 15.541-5.042 22.498-9.326l14.61 6.489 17.225-17.225-6.491-14.615c4.282-6.955 7.433-14.545 9.324-22.491l14.914-5.741v-24.36zm-75.09 60.403c-23.465 0-42.484-19.019-42.484-42.484s19.019-42.484 42.484-42.484 42.484 19.019 42.484 42.484-19.019 42.484-42.484 42.484zm375.089-360.403c-1.891-7.948-5.042-15.541-9.326-22.497l6.489-14.61-17.225-17.225-14.615 6.491c-6.955-4.283-14.545-7.433-22.491-9.324l-5.742-14.916h-24.36l-5.741 14.915c-7.946 1.891-15.536 5.041-22.491 9.324l-14.615-6.491-17.225 17.226 6.49 14.614c-4.283 6.955-7.434 14.546-9.325 22.493l-14.912 5.739v24.36l14.911 5.739c1.891 7.948 5.042 15.541 9.326 22.498l-6.489 14.61 17.225 17.225 14.615-6.491c6.955 4.283 14.545 7.433 22.491 9.324l5.741 14.915h24.36l5.739-14.911c7.948-1.891 15.541-5.042 22.498-9.326l14.61 6.489 17.225-17.225-6.491-14.615c4.283-6.955 7.433-14.545 9.324-22.492l14.915-5.74v-24.36zm-75.089 60.403c-23.465 0-42.484-19.019-42.484-42.484s19.019-42.484 42.484-42.484 42.483 19.019 42.483 42.484-19.019 42.484-42.483 42.484zm-136.706 295.616c86.843-35.846 154.766-108.14 185.164-197.015 1.415-4.176 5.949-6.415 10.125-5 4.177 1.415 6.415 5.949 5 10.125-31.927 93.345-103.209 169.177-194.453 206.759l15.41 4.158c4.263 1.139 6.795 5.518 5.656 9.781s-5.518 6.795-9.781 5.656l-41.096-11.089c-5.824-1.556-7.822-8.707-3.866-13.077l25.366-33.35c2.658-3.503 7.653-4.189 11.156-1.531s4.189 7.653 1.531 11.156zm-26.588-376.199-10.212 13.426c-2.658 3.503-1.972 8.498 1.531 11.156s8.498 1.972 11.156-1.531l25.366-33.351c3.956-4.37 1.958-11.52-3.866-13.076l-41.096-11.089c-4.263-1.139-8.642 1.394-9.781 5.656-1.139 4.263 1.394 8.642 5.656 9.781l15.41 4.158c-91.243 37.583-162.526 113.414-194.453 206.76-1.415 4.177.824 8.71 5 10.125 4.177 1.415 8.71-.824 10.125-5 30.399-88.877 98.32-161.168 185.164-197.015zm-53.228 158.508v52.267h133.043v-52.267zm26.134 41.134c-8.284 0-15-6.716-15-15s6.716-15 15-15 15 6.716 15 15-6.716 15-15 15zm80.775 0c-8.284 0-15-6.716-15-15s6.715-15 15-15 15 6.716 15 15-6.715 15-15 15zm50.534-70.534h-181.843c-2.754 0-5 2.246-5 5v101.067c0 2.754 2.246 5 5 5h181.842c2.754 0 5-2.246 5-5v-101.067c.001-2.754-2.245-5-4.999-5zm-8.4 89.667c0 4.418-3.582 8-8 8h-149.043c-4.418 0-8-3.582-8-8v-68.267c0-4.418 3.582-8 8-8h149.043c4.418 0 8 3.582 8 8zm-82.521-119.353c12.126 0 23.014 5.29 30.489 13.686h-60.977c7.474-8.396 18.362-13.686 30.488-13.686zm66.472 156.753h-132.944v2.301c0 10.066 8.237 18.301 18.3 18.301h96.342c10.064 0 18.301-8.237 18.301-18.301v-2.301zm45.449-98.458v50.484h1.399c5.5 0 10-4.5 10-10v-30.485c0-5.5-4.5-10-10-10h-1.399z" fill-rule="evenodd"/></svg>